PathFileType	4	(X/Y/Z)	C:/Users/opensim2020/Desktop/walking_exp_matlab/subject03/subject03_trc/subject03_walking16_run_cyclic.trc																																																																																																																																																	
DataRate	CameraRate	NumFrames	NumMarkers	Units	OrigDataRate	OrigDataStartFrame	OrigNumFrames																																																																																																																																													
100	100	5	49	mm	100	213	67																																																																																																																																													
Frame#	Time	RKNE			RTOE			RWRB			LTHI			RELB			RFRM			RUPA			RASI			LTIB			RWRA			RTHI			LSHO			LTOE			RTIB			LWRA			CLAV			LASI			RSHO			RFHD			STRN			LHEE			RFIN			RBHD			LFRM			C7			LWRB			LFIN			LUPA			LBHD			LELB			RANK			RHEE			RBAK			LPSI			T10			LFHD			RPSI			LKNE			LANK			*39			*40			*41			*42			*43			*44			*45			*46			*47			*48		
		X1	Y1	Z1	X2	Y2	Z2	X3	Y3	Z3	X4	Y4	Z4	X5	Y5	Z5	X6	Y6	Z6	X7	Y7	Z7	X8	Y8	Z8	X9	Y9	Z9	X10	Y10	Z10	X11	Y11	Z11	X12	Y12	Z12	X13	Y13	Z13	X14	Y14	Z14	X15	Y15	Z15	X16	Y16	Z16	X17	Y17	Z17	X18	Y18	Z18	X19	Y19	Z19	X20	Y20	Z20	X21	Y21	Z21	X22	Y22	Z22	X23	Y23	Z23	X24	Y24	Z24	X25	Y25	Z25	X26	Y26	Z26	X27	Y27	Z27	X28	Y28	Z28	X29	Y29	Z29	X30	Y30	Z30	X31	Y31	Z31	X32	Y32	Z32	X33	Y33	Z33	X34	Y34	Z34	X35	Y35	Z35	X36	Y36	Z36	X37	Y37	Z37	X38	Y38	Z38	X39	Y39	Z39	X40	Y40	Z40	X41	Y41	Z41	X42	Y42	Z42	X43	Y43	Z43	X44	Y44	Z44	X45	Y45	Z45	X46	Y46	Z46	X47	Y47	Z47	X48	Y48	Z48	X49	Y49	Z49
																																																																																																																																																				
20	0.19	-1032.12512	419.02692	347.61423	-1454.05322	155.19412	304.68954	-809.34387	980.26154	383.27869	-917.0741	630.20563	68.96806	-981.68127	1076.53735	491.73596	-883.81665	1024.4967	432.66315	-989.37952	1171.77771	474.55698	-929.59601	903.93579	346.44	-884.91577	273.49625	131.25978	-813.41901	1027.11646	358.31424	-1018.81299	601.95087	383.09982	-961.62677	1355.88721	62.09419	-760.47028	33.57021	224.03908	-1212.93738	356.18488	355.39746	-986.66138	924.74762	-0.53996	-901.19067	1311.8678	206.81299	-940.55212	915.1629	116.1446	-943.00519	1360.60339	359.94537	-940.67523	1602.98401	284.09439	-869.33923	1141.55542	207.31638	-951.8703	43.50664	235.82747	-745.24768	984.32068	347.46191	-1042.28235	1523.66443	266.04617	-1025.31726	1019.88306	-72.23849	-1026.01025	1386.21423	204.36916	-979.38098	914.67841	-56.49184	-980.18762	828.0332	-18.28211	-1041.42041	1222.09277	-63.36303	-1022.38092	1522.14551	137.07681	-1079.68774	1119.72986	-104.61409	-1419.66638	297.14862	327.73697	-1452.71594	336.3338	275.99609	-1072.23267	1232.34363	318.32925	-1098.10413	944.76721	169.54681	-1081.81567	1087.28552	235.90265	-915.80048	1601.90002	152.49669	-1084.41785	952.65771	319.21704	-835.73907	471.61157	111.22717	-912.50842	71.996	195.45407	NaN	NaN	NaN	NaN	NaN	NaN	NaN	NaN	NaN	NaN	NaN	NaN	NaN	NaN	NaN	NaN	NaN	NaN	NaN	NaN	NaN	-1019.87683	1633.13257	187.94144	NaN	NaN	NaN	NaN	NaN	NaN
21	0.2	-978.8703	410.60422	351.3349	-1400.19812	161.75092	313.26505	-788.77362	957.02631	391.89706	-886.26825	625.74921	68.4708	-957.00006	1069.78857	491.16333	-860.974	1008.01001	437.54135	-962.45374	1165.47595	474.31985	-901.08868	898.4375	347.66544	-865.58942	269.73804	131.89706	-789.46759	1002.23804	364.526	-977.72266	593.06677	386.01846	-927.52264	1346.54468	60.21845	-758.15015	33.11857	222.85968	-1158.81287	354.09015	358.84979	-940.7699	907.96729	4.31039	-868.96185	1305.02588	207.30014	-913.69415	910.88916	116.60522	-912.22388	1353.90466	360.1799	-910.80713	1597.21252	284.05807	-838.97687	1133.92664	209.16595	-949.79114	43.92733	236.40926	-723.77094	955.14581	357.91235	-1011.60229	1516.46155	265.58105	-978.07251	1001.92822	-69.13192	-994.73157	1379.95593	203.30449	-930.18091	899.04889	-51.56269	-927.12445	812.77014	-14.31159	-1000.52112	1205.15234	-63.88877	-990.80603	1514.92883	136.60057	-1033.58521	1100.92383	-102.84261	-1367.29443	303.84805	331.02719	-1401.53674	341.99155	278.42535	-1043.00134	1227.69275	316.82806	-1071.04578	938.40369	171.48015	-1052.09851	1082.31433	236.63593	-884.92578	1596.27502	152.95673	-1056.35083	944.05328	321.22662	-809.80023	464.53223	111.54003	-907.9212	71.42451	196.08022	NaN	NaN	NaN	NaN	NaN	NaN	NaN	NaN	NaN	NaN	NaN	NaN	NaN	NaN	NaN	NaN	NaN	NaN	NaN	NaN	NaN	-989.99005	1625.88367	187.19331	NaN	NaN	NaN	NaN	NaN	NaN
22	0.21	-924.64349	404.04742	354.80283	-1342.34241	166.00829	321.22153	-769.59418	933.6073	401.30515	-857.93091	619.62189	69.08842	-932.53119	1062.35132	490.33276	-839.08173	991.42633	442.75183	-935.73676	1157.81567	473.31961	-873.26196	892.08337	348.13748	-845.94037	266.98346	133.09415	-767.48828	976.87842	371.10623	-935.71851	584.28815	388.40643	-893.21954	1336.96899	58.25682	-757.46967	32.93544	223.76222	-1103.12549	352.22516	362.49808	-893.95154	891.2655	10.57237	-837.39276	1297.46936	207.94322	-886.40125	906.58014	116.89103	-882.23395	1347.18188	360.86942	-880.8017	1591.61707	283.91043	-808.96643	1125.86377	211.13823	-949.04224	45.45437	237.63817	-704.70801	927.00763	369.40012	-980.70026	1509.32068	265.11411	-930.07867	983.6402	-64.82592	-963.41113	1373.39258	201.82164	-879.51563	883.84979	-45.10543	-873.24292	798.00671	-9.21358	-958.54608	1187.29407	-63.895	-959.07605	1507.77673	136.18732	-986.41644	1081.78918	-100.29035	-1312.21558	308.38223	334.01736	-1348.19495	345.32047	281.17371	-1014.04669	1222.14319	314.96252	-1044.27625	932.08124	173.26874	-1022.78503	1076.72278	237.61346	-854.23065	1590.83398	152.94679	-1028.96619	935.03229	323.29025	-784.83459	457.40823	112.24025	-905.39868	72.17301	197.24902	NaN	NaN	NaN	NaN	NaN	NaN	NaN	NaN	NaN	NaN	NaN	NaN	NaN	NaN	NaN	NaN	NaN	NaN	NaN	NaN	NaN	-960.21942	1618.62244	186.51169	NaN	NaN	NaN	NaN	NaN	NaN
23	0.22	-869.36993	400.42627	357.51636	-1281.44836	167.70978	328.18216	-751.99622	911.61035	412.07358	-831.39264	612.87744	70.68364	-907.91272	1054.70386	490.06628	-818.4917	974.84204	448.1293	-909.62	1149.27209	471.88776	-846.01929	885.47186	349.84775	-830.49756	264.17538	133.94823	-747.71942	952.1759	377.83658	-891.47571	578.52582	390.50204	-858.64795	1327.68359	56.32624	-757.37732	32.42772	224.14497	-1045.93347	350.59158	365.71994	-845.57288	875.49597	18.40954	-805.11176	1290.57813	208.83795	-859.1087	901.90118	117.28719	-852.81763	1340.65564	361.9917	-850.70782	1586.37781	283.84009	-778.63611	1118.15308	213.03717	-948.76514	46.23209	237.76378	-687.39563	901.2348	382.95169	-949.55286	1502.63745	264.57806	-880.32562	966.45294	-58.82075	-931.81781	1367.69458	199.47891	-827.20728	869.98688	-36.57975	-820.27728	783.94379	-2.13044	-915.68207	1169.31812	-63.01606	-927.37451	1501.33618	135.70859	-938.60077	1062.87122	-96.51455	-1255.23975	310.05096	337.10812	-1293.11328	345.9245	284.20737	-985.26385	1216.06836	312.98599	-1017.14282	926.4306	175.23332	-993.95911	1071.27637	238.8533	-823.53174	1585.82129	152.95444	-1001.99292	926.18951	325.26553	-761.3822	451.21945	113.96468	-903.46783	72.45297	197.72574	NaN	NaN	NaN	NaN	NaN	NaN	NaN	NaN	NaN	NaN	NaN	NaN	NaN	NaN	NaN	NaN	NaN	NaN	NaN	NaN	NaN	-930.61383	1612.01221	185.94319	NaN	NaN	NaN	NaN	NaN	NaN
24	0.23	-813.50934	400.50162	359.41876	-1218.01685	166.6143	333.93329	-736.32202	891.60583	422.68356	-807.11603	607.65314	71.98442	-883.80298	1046.83044	490.48911	-799.32306	959.30096	453.39261	-883.87598	1141.54883	470.86371	-818.31342	878.97864	350.15018	-821.29401	261.38568	134.09198	-729.97955	929.43542	385.07523	-846.79169	576.6557	392.6319	-823.7699	1318.83777	54.8069	-757.38873	32.38616	224.62469	-987.5827	349.17154	368.27618	-795.24402	862.11646	28.23021	-773.41705	1284.698	209.75986	-831.15533	897.18164	117.55505	-823.62622	1334.28394	363.26254	-820.38995	1581.39221	283.70297	-748.35938	1112.48987	214.853	-949.22229	46.27577	236.86195	-671.88184	878.56952	396.86963	-918.7478	1496.9104	264.06195	-829.11047	951.8291	-50.94322	-899.64502	1363.80713	197.19571	-772.95709	858.7074	-25.73784	-766.62561	772.0495	6.28462	-872.39258	1153.23047	-60.23315	-895.87189	1495.93884	135.3148	-889.70148	1046.30603	-91.57087	-1196.86377	308.73776	340.34839	-1237.05603	343.43652	287.59351	-956.65045	1210.02051	310.87869	-989.33447	922.12604	177.24602	-964.89886	1066.74451	239.8597	-792.79706	1581.11621	152.73575	-974.47186	919.35339	326.50861	-740.00397	444.98337	115.70588	-902.23584	71.72404	197.52884	NaN	NaN	NaN	NaN	NaN	NaN	NaN	NaN	NaN	NaN	NaN	NaN	NaN	NaN	NaN	NaN	NaN	NaN	NaN	NaN	NaN	-900.72504	1606.37292	185.51439	NaN	NaN	NaN	NaN	NaN	NaN
